<svg xmlns="http://www.w3.org/2000/svg" style="isolation:isolate" viewBox="603.375 478.438 645.898 95.557" width="861.197" height="127.409"><path d="M657.965 553.438l-45.215-68.75v68.75h-9.375v-75H619l43.701 65.625 43.701-65.625h14.942v75h-9.375v-67.725l-44.531 67.725h-9.473zm111.816 1.074q-9.375 0-15.918-1.294-6.543-1.294-10.644-4.468-4.102-3.174-5.957-8.496-1.856-5.322-1.856-13.379 0-9.229 1.856-15.259 1.855-6.03 5.957-9.595 4.101-3.564 10.644-4.98 6.543-1.416 15.918-1.416 6.69 0 11.597.977 4.907.976 8.398 2.832 3.492 1.855 5.664 4.492 2.173 2.637 3.418 5.542 1.246 2.905 1.709 6.811.464 3.907.464 8.252l-.781 3.125h-55.469q0 6.446 1.27 10.572 1.269 4.126 4.199 6.03 2.93 1.904 7.715 2.417 4.785.513 11.816.513 6.446 0 10.669-.367 4.224-.366 6.714-1.391 2.49-1.026 3.491-2.857 1.001-1.831 1.001-4.76h9.375q0 4.541-1.587 7.739-1.587 3.198-5.249 5.176-3.662 1.977-9.643 2.88-5.982.904-14.771.904zm0-51.074q-4.687 0-8.374.195-3.686.195-6.445.854-2.759.659-4.712 1.905-1.953 1.245-3.149 2.929-1.197 1.685-1.758 4.737-.562 3.051-.562 7.348h46.875q0-5.713-1.22-8.96-1.221-3.247-3.858-5.346-2.637-2.1-6.787-2.881-4.15-.781-10.01-.781zm76.563 0q-5.469 0-9.448.341-3.98.342-6.763 1.221t-4.517 2.441q-1.733 1.563-2.685 4.004-.952 2.442-1.27 5.884-.317 3.442-.317 8.081 0 4.59.317 7.984.318 3.393 1.27 5.81t2.685 3.98q1.734 1.562 4.517 2.441 2.783.879 6.763 1.221 3.979.342 9.448.342 4.687 0 8.349-.22t6.446-.977q2.783-.757 4.712-2.197 1.928-1.44 3.149-3.857 1.221-2.417 1.782-6.006.562-3.589.562-8.667 0-5.078-.562-8.692-.561-3.613-1.782-6.03-1.221-2.417-3.149-3.833-1.929-1.416-4.712-2.148-2.784-.733-6.446-.928-3.662-.195-8.349-.195zm34.375-6.25v48.437q0 8.203-1.856 13.623-1.855 5.42-5.957 8.765-4.101 3.344-10.644 4.663-6.543 1.318-15.918 1.318-8.789 0-14.771-.781-5.981-.781-9.643-2.466-3.662-1.684-5.249-4.346-1.587-2.661-1.587-6.469h9.375q0 1.904 1.001 3.125 1.001 1.22 3.491 1.904 2.49.684 6.714.952 4.223.269 10.669.269 7.031 0 11.816-.513 4.785-.513 7.715-2.417 2.93-1.904 4.199-5.762 1.27-3.857 1.27-10.302-.684 1.171-2.173 2.539-1.489 1.367-4.346 2.539-2.856 1.172-7.348 1.953-4.493.781-11.133.781-9.375 0-15.918-1.392-6.543-1.391-10.645-4.76-4.101-3.369-5.957-9.082-1.855-5.713-1.855-14.356 0-8.789 1.855-14.551 1.856-5.761 5.957-9.13 4.102-3.37 10.645-4.737 6.543-1.367 15.918-1.367 6.64 0 11.133.684 4.492.683 7.348 1.709 2.857 1.025 4.346 2.221 1.489 1.197 2.173 2.173v-5.224h9.375zm68.506 56.25v-7.715q-.147.586-2.198 2.929-1.464 1.758-3.906 3.101-2.441 1.343-6.518 2.1-4.078.756-10.718.756-8.838 0-15.088-.903t-10.205-2.783q-3.955-1.88-5.786-4.81-1.831-2.929-1.831-6.982 0-4.248 1.001-7.202 1.001-2.954 2.929-4.956 1.929-2.002 4.663-3.125 2.735-1.123 6.226-1.709 3.491-.586 7.642-.733 4.15-.146 8.837-.146 6.69 0 11.182.561 4.492.562 7.349 1.416 2.856.855 4.321 1.831 1.465.977 2.1 1.807 0-5.469-.464-9.326-.464-3.858-1.514-6.445-1.05-2.588-2.71-4.126-1.66-1.539-4.077-2.32-2.417-.781-5.64-1.001-3.222-.219-7.373-.219-6.445 0-10.693.317-4.248.317-6.738 1.245-2.491.928-3.516 2.563-1.025 1.636-1.025 4.273H896.1q0-4.443 1.587-7.52 1.586-3.076 5.273-5.004 3.686-1.929 9.692-2.808 6.006-.879 14.795-.879 8.594 0 14.551 1.416 5.957 1.416 9.644 4.98 3.686 3.565 5.322 9.595 1.636 6.03 1.636 15.259v26.563h-9.375zm-21.778-6.25q6.201 0 10.376-.586t6.714-1.758q2.539-1.172 3.613-2.93 1.075-1.758 1.075-4.101 0-2.344-1.246-3.98-1.245-1.636-4.15-2.661-2.905-1.026-7.69-1.489-4.785-.464-11.817-.464-7.031 0-11.352.244-4.322.244-6.665 1.123-2.344.879-3.15 2.588-.805 1.709-.805 4.639 0 2.929.854 4.76.855 1.831 3.491 2.857 2.637 1.025 7.593 1.391 4.956.367 13.159.367zm90.528-18.75h7.812q0 7.177-1.172 11.987-1.172 4.809-3.93 7.69-2.759 2.881-7.251 4.102-4.493 1.221-11.084 1.221-6.397 0-10.743-.977-4.345-.977-7.031-3.32-2.685-2.344-3.857-6.25-1.172-3.907-1.172-9.766v-28.223h-11.572v-7.714h11.572v-15.381h9.375v15.381h35.303v7.714h-35.303v28.223q0 4.688.708 7.227.708 2.539 2.27 3.711 1.563 1.171 4.126 1.367 2.564.195 6.275.195 2.929 0 5.249-.098 2.319-.097 4.053-.61 1.733-.513 2.954-1.563 1.22-1.049 1.977-2.954.757-1.904 1.099-4.809.342-2.905.342-7.153zm85.937 25h-9.375v-31.739q0-5.078-.781-8.569-.781-3.491-3.125-5.64-2.344-2.148-6.641-3.1-4.297-.952-11.328-.952-7.617 0-12.475 1.098-4.859 1.099-7.642 3.076-2.783 1.978-3.833 4.761-1.05 2.783-1.05 6.201v34.864h-9.375v-75h9.375v27.636q.977-2.295 2.783-3.955 1.807-1.66 4.175-2.832t5.103-1.88q2.734-.708 5.542-1.098 2.807-.391 5.517-.538 2.71-.146 5.005-.146 6.25 0 10.767.757 4.516.757 7.666 2.246 3.149 1.489 5.053 3.686 1.905 2.198 2.955 5.103 1.049 2.905 1.391 6.494.342 3.589.342 7.788l-.049 31.739zm45.361 1.074q-9.375 0-15.918-1.294-6.542-1.294-10.644-4.468t-5.957-8.496q-1.856-5.322-1.856-13.379 0-9.229 1.856-15.259 1.855-6.03 5.957-9.595 4.102-3.564 10.644-4.98 6.543-1.416 15.918-1.416 6.69 0 11.597.977 4.907.976 8.399 2.832 3.491 1.855 5.664 4.492 2.172 2.637 3.418 5.542 1.245 2.905 1.709 6.811.463 3.907.463 8.252l-.781 3.125h-55.469q0 6.446 1.27 10.572 1.27 4.126 4.199 6.03 2.93 1.904 7.715 2.417 4.785.513 11.816.513 6.446 0 10.669-.367 4.224-.366 6.714-1.391 2.49-1.026 3.491-2.857 1.001-1.831 1.001-4.76h9.375q0 4.541-1.586 7.739-1.587 3.198-5.249 5.176-3.663 1.977-9.644 2.88-5.981.904-14.771.904zm0-51.074q-4.687 0-8.374.195-3.686.195-6.445.854-2.759.659-4.712 1.905-1.953 1.245-3.149 2.929-1.197 1.685-1.758 4.737-.562 3.051-.562 7.348h46.875q0-5.713-1.22-8.96-1.221-3.247-3.858-5.346-2.636-2.1-6.787-2.881-4.15-.781-10.01-.781zm100 12.06h-7.812q0-3.516-.513-5.835-.512-2.319-2.417-3.711-1.904-1.391-5.639-1.953-3.736-.561-10.181-.561-6.299 0-10.254 1.098-3.955 1.099-6.201 3.101-2.246 2.002-3.052 4.785-.806 2.783-.806 6.201v34.815h-9.375v-56.25h9.375v8.935q.489-1.514 1.807-3.345 1.318-1.831 4.004-3.418 2.686-1.587 6.958-2.661t10.669-1.074q7.324 0 11.914 1.294t7.153 3.809q2.564 2.514 3.467 6.225t.903 8.545z" fill="#FFF"/></svg>